<?xml version="1.0" standalone="no"?>
<!DOCTYPE svg PUBLIC "-//W3C//DTD SVG 20010904//EN"
 "http://www.w3.org/TR/2001/REC-SVG-20010904/DTD/svg10.dtd">
<svg version="1.0" xmlns="http://www.w3.org/2000/svg"
 width="366.000000pt" height="366.000000pt" viewBox="0 0 366.000000 366.000000"
 preserveAspectRatio="xMidYMid meet">
<metadata>
Created by potrace 1.14, written by Peter Selinger 2001-2017
</metadata>
<g transform="translate(0.000000,366.000000) scale(0.100000,-0.100000)"
fill="#000000" stroke="none">
<path d="M30 3626 c0 -8 6 -27 14 -43 8 -15 22 -46 32 -68 28 -66 90 -189 118
-233 14 -23 26 -45 26 -49 0 -32 289 -353 319 -353 5 0 35 -16 67 -35 81 -49
104 -46 171 18 30 28 64 64 75 80 l19 27 -24 54 c-70 152 -229 315 -423 434
-139 84 -343 182 -381 182 -7 0 -13 -6 -13 -14z"/>
<path d="M1016 3460 c-56 -5 -60 -7 -67 -34 -8 -28 3 -65 19 -67 4 0 546 -2
1205 -5 659 -2 1203 -6 1208 -9 5 -4 9 -484 9 -1209 0 -921 3 -1205 12 -1214
7 -7 29 -12 50 -12 31 0 39 4 43 23 11 43 1 2505 -10 2516 -11 11 -2350 21
-2469 11z"/>
<path d="M2362 3205 c-7 -14 -12 -35 -12 -47 0 -11 -4 -37 -9 -57 -6 -20 -17
-65 -26 -101 -24 -94 -53 -176 -89 -246 -18 -34 -30 -66 -28 -73 2 -6 17 -11
33 -11 24 0 38 11 75 59 47 60 84 88 103 77 33 -21 -12 -125 -108 -253 -32
-43 -63 -94 -68 -113 -5 -18 -15 -37 -23 -41 -19 -9 -174 -29 -228 -29 -24 0
-58 -7 -77 -14 -33 -14 -35 -17 -36 -68 -2 -81 1 -101 18 -120 22 -24 48 -22
112 7 142 66 509 105 1001 105 l205 0 48 46 c34 32 47 52 45 67 -3 22 -5 22
-273 24 -270 1 -293 4 -267 36 57 69 113 228 137 390 21 136 17 152 -41 177
-57 25 -69 25 -102 1 -32 -22 -291 -86 -303 -74 -4 4 12 49 36 99 61 128 62
123 -15 155 -82 35 -94 35 -108 4z m349 -381 c10 -12 10 -22 1 -48 -7 -18 -12
-43 -12 -56 0 -14 -12 -56 -27 -95 -56 -149 -150 -240 -228 -221 -33 8 -32 19
9 102 40 80 76 186 77 223 1 55 22 95 54 102 58 13 112 10 126 -7z"/>
<path d="M867 2812 c-37 -37 -67 -76 -67 -86 0 -10 548 -567 1343 -1363 l1343
-1345 55 57 c29 32 62 65 72 74 9 8 17 24 17 35 0 19 -2666 2696 -2686 2696
-5 0 -40 -30 -77 -68z"/>
<path d="M231 2721 c-12 -8 -14 -199 -12 -1272 1 -695 5 -1267 7 -1271 3 -4
572 -8 1265 -8 l1260 0 9 24 c5 13 5 37 1 53 l-7 28 -1205 2 c-1118 3 -1205 4
-1216 20 -10 13 -13 272 -13 1215 0 1173 0 1198 -19 1208 -24 12 -51 13 -70 1z"/>
<path d="M1048 1644 c-3 -5 -2 -56 2 -113 8 -113 -1 -257 -19 -307 -14 -36
-31 -42 -184 -70 -53 -10 -103 -24 -109 -31 -24 -30 -1 -137 34 -159 16 -10
70 -6 82 6 13 13 66 13 66 1 0 -5 -21 -35 -46 -66 -54 -66 -185 -167 -259
-200 -72 -32 -77 -41 -79 -144 -2 -139 6 -139 181 -14 156 111 289 260 373
416 23 42 51 84 63 92 17 12 57 15 194 15 163 0 172 1 178 20 9 27 -13 126
-30 140 -11 9 -44 9 -140 0 -86 -9 -129 -10 -136 -3 -7 7 -6 31 5 74 30 128
36 165 38 232 2 59 -1 71 -17 80 -35 21 -189 45 -197 31z"/>
<path d="M1357 1594 c-4 -4 -7 -24 -7 -45 0 -50 -18 -136 -36 -177 -21 -44
-15 -66 18 -70 44 -5 62 12 112 112 56 113 61 145 26 162 -33 16 -104 27 -113
18z"/>
<path d="M778 1499 c-14 -6 -29 -17 -32 -25 -10 -26 85 -264 105 -264 6 0 33
12 60 28 58 32 62 54 24 126 -14 26 -25 51 -25 57 0 5 -12 27 -26 49 -28 43
-51 49 -106 29z"/>
<path d="M1229 984 c-14 -7 -33 -22 -42 -32 -16 -17 -15 -20 11 -44 51 -48
586 -461 603 -465 16 -5 169 120 169 138 0 10 -136 107 -169 120 -13 5 -35 18
-50 28 -26 18 -37 25 -156 91 -33 18 -76 42 -95 53 -19 11 -55 31 -80 45 -25
13 -68 37 -96 53 -57 32 -59 32 -95 13z"/>
</g>
</svg>
